<svg xmlns="http://www.w3.org/2000/svg" xmlns:xlink="http://www.w3.org/1999/xlink" viewBox="0 0 928.01 673.64"><defs><style>.cls-1{fill:url(#linear-gradient);}</style><linearGradient id="linear-gradient" x1="130.64" y1="583.47" x2="1058.66" y2="583.47" gradientUnits="userSpaceOnUse"><stop offset="0" stop-color="#9929ea"/><stop offset="1" stop-color="#5808fb"/></linearGradient></defs><g id="Layer_2" data-name="Layer 2"><path class="cls-1" d="M1058.65,836.47c-.35-235.47-.36-329.12-.17-332.74,0,0,0-.45,0-1,.09-1.86.21-5.69,0-10.5a119.14,119.14,0,0,0-4.6-28.39,123.3,123.3,0,0,0-19.36-38.77c-6.3-5.94-15.52-14.56-26.76-24.86l0,0c-6.85-6.27-16.92-15.42-37.46-33.56v-1.31h-1.49c-7-6.15-15.1-13.29-24.67-21.66-12.77-11.17-29.52-25.76-49.34-42.88-4.37-3.61-10.47-8.38-18.07-13.56a181.43,181.43,0,0,0-22.59-13.56,172.35,172.35,0,0,0-22.59-9,318.17,318.17,0,0,0-43.85-11.82,366.28,366.28,0,0,0-69-6.16H458.7c-32.3,0-52.32,0-65,0-7.07,0-43.17.07-91.92,0h0c-31.24-.18-57.89,0-80,0-10.85,0-25.87-1.07-43.1,6.16a81.28,81.28,0,0,0-24.63,16c-22.94,22.29-23.48,53.72-23.39,61.57.35,235.47.36,329.12.17,332.74,0,0,0,.45,0,1-.09,1.86-.21,5.69,0,10.5a119.14,119.14,0,0,0,4.6,28.39,123.3,123.3,0,0,0,19.36,38.77c6.3,5.94,15.52,14.56,26.76,24.86l0,0c9.28,8.49,24.45,22.27,63.62,56.53,12.77,11.17,29.52,25.76,49.34,42.88,4.37,3.61,10.47,8.38,18.07,13.56a181.43,181.43,0,0,0,22.59,13.56,172.35,172.35,0,0,0,22.59,9,318.17,318.17,0,0,0,43.85,11.82,366.28,366.28,0,0,0,68.95,6.16H795.57l91.92,0h0c31.24.18,57.89,0,80,0,10.85,0,25.87,1.07,43.1-6.16a81.28,81.28,0,0,0,24.63-16C1058.2,875.75,1058.74,844.32,1058.65,836.47Z" transform="translate(-130.64 -246.65)"/></g></svg>