<?xml version="1.0" encoding="UTF-8"?>
<svg xmlns="http://www.w3.org/2000/svg" xmlns:xlink="http://www.w3.org/1999/xlink" viewBox="0 0 928.01 673.64">
  <defs>
    <style>
      .cls-1 {
        fill: #fff;
      }

      .cls-2 {
        fill: url(#linear-gradient);
      }
    </style>
    <linearGradient id="linear-gradient" x1="0" y1="336.82" x2="928.01" y2="336.82" gradientUnits="userSpaceOnUse">
      <stop offset="0" stop-color="#9929ea"/>
      <stop offset="1" stop-color="#5808fb"/>
    </linearGradient>
  </defs>
  <g id="WHITE_v1_copy_3" data-name="WHITE v1 copy 3">
    <path class="cls-1" d="m510.49,118.71h329.22v554.82c-41.16.01-80.89.03-82.86.03-30.64.01-61.28.03-91.92.05-36.59.02-88.78.02-154.44-.04V118.71Z"/>
    <path class="cls-1" d="m130.26.05c11.59.01,28.47.03,40.91.03,48.75.02,84.85-.04,91.92-.05,33.17-.05,116.88,0,340.14.38v585.55H130.26V.05Z"/>
  </g>
  <g id="Layer_2" data-name="Layer 2">
    <path class="cls-2" d="m928.01,589.82c-.35-235.47-.36-329.12-.17-332.74,0-.04.03-.45.05-1,.09-1.86.21-5.69.02-10.5-.3-7.38-1.37-17.28-4.6-28.39-5.07-17.48-13.31-30.57-19.36-38.77-6.3-5.94-15.52-14.56-26.76-24.86l-.02.02c-9.28-8.49-24.45-22.27-63.62-56.53-12.77-11.17-29.52-25.76-49.34-42.88-4.37-3.61-10.47-8.38-18.07-13.56-5.82-3.96-12.95-8.78-22.59-13.56-4.3-2.13-10.54-4.97-22.59-9.04-9.02-3.04-23.78-7.97-43.85-11.82C623.63-.23,594.52.03,588.16.03h-325.07c.03,112.27.07,224.54.11,336.81v58.47c.92,10.76,3.41,31.16,18.94,46.11,16.14,15.54,37.18,18.23,50.35,18.23h191.33v82.02h-181.26c-41.67,0-78.59-10.56-108.48-32.23-17.66-12.81-28.49-26.24-32.5-31.56-24.14-32.01-29-65.75-30.21-82.02-.07-131.93-.14-263.85-.2-395.78-31.24-.18-57.89.01-80.04,0-10.85,0-25.87-1.07-43.1,6.16-13.9,5.83-22.6,14.04-24.63,16.01C.46,44.54-.08,75.97,0,83.82c.35,235.47.36,329.12.17,332.74,0,.04-.03.45-.05,1-.09,1.86-.21,5.69-.02,10.5.3,7.38,1.37,17.28,4.6,28.39,5.07,17.48,13.31,30.57,19.36,38.77,6.3,5.94,15.52,14.56,26.76,24.86l.02-.02c9.28,8.49,24.45,22.27,63.62,56.53,12.77,11.17,29.52,25.76,49.34,42.88,4.37,3.61,10.47,8.38,18.07,13.56,5.82,3.96,12.95,8.78,22.59,13.56,4.3,2.13,10.54,4.97,22.59,9.04,9.02,3.04,23.78,7.97,43.85,11.82,33.48,6.42,62.59,6.16,68.95,6.16h325.07c-.03-112.27-.07-224.54-.11-336.81v-58.48c-.92-10.76-3.41-31.15-18.94-46.1-16.14-15.54-37.18-18.23-50.35-18.23h-191.33v-82.02h181.26c41.67,0,78.59,10.56,108.48,32.23,17.66,12.81,28.49,26.24,32.5,31.56,24.14,32.01,29,65.75,30.21,82.02.07,131.93.14,263.85.2,395.78,31.24.18,57.89-.01,80.04,0,10.85,0,25.87,1.07,43.1-6.16,13.9-5.83,22.6-14.04,24.63-16.01,22.94-22.29,23.48-53.72,23.39-61.57Zm-463.41-314.98c33.8.32,60.45,29.26,60.52,61.97-.06,33.15-27.47,62.32-61.7,61.99-33.79-.32-60.45-29.27-60.52-61.98.06-33.15,27.47-62.31,61.7-61.98Z"/>
  </g>
</svg>