<?xml version="1.0" encoding="UTF-8"?>
<svg id="BLACK_v1_copy" data-name="BLACK v1 copy" xmlns="http://www.w3.org/2000/svg" xmlns:xlink="http://www.w3.org/1999/xlink" viewBox="0 0 1169 363.97">
  <defs>
    <style>
      .cls-1, .cls-2 {
        fill: #fff;
      }

      .cls-3 {
        fill: none;
        stroke-width: 30px;
      }

      .cls-3, .cls-2 {
        stroke: #fff;
        stroke-miterlimit: 10;
      }

      .cls-4 {
        fill: url(#linear-gradient);
      }
    </style>
    <linearGradient id="linear-gradient" x1="66.5" y1="197.52" x2="271.5" y2="197.52" gradientTransform="translate(0 91.95)" gradientUnits="userSpaceOnUse">
      <stop offset="0" stop-color="#9929ea"/>
      <stop offset="1" stop-color="#5808fb"/>
    </linearGradient>
  </defs>
  <path class="cls-1" d="m179.27,241.56h57.04c-.87,40.8-1.75,81.59-2.62,122.39-6.77.01-13.53.02-20.3.02-11.38,0-22.75,0-34.12-.02v-122.39Z"/>
  <path class="cls-1" d="m95.24,215c.31,0,8.76,0,9.07,0,0,0,13.91-.01,20.3-.02,13.37-.01,51.33.28,75.15.47v129.11h-104.52v-129.55Z"/>
  <path class="cls-2" d="m.5,36.4C18.15,24.43,35.79,12.47,53.44.5h99.25c3.72-.02,12.95.45,22.06,6.62,1.38.94,8.45,5.85,13.23,15.44,3.62,7.25,4.3,13.89,4.41,17.65.35,6.67.42,14.06,0,22.06-.41,7.73-1.21,14.84-2.21,21.26-1.78,5.98-7.19,21.23-22.06,33.66-16.25,13.58-33.73,15.36-39.7,15.71,23.53,20.94,47.05,41.88,70.58,62.82h-55.14c-31.61-28.42-63.23-56.84-94.84-85.26-.31-1.2-.8-3.73,0-6.73.56-2.09,1.52-3.59,2.21-4.49h63.96c4.41,0,13.23,0,19.85-2.24,4.86-1.65,10.56-3.49,15.44-8.97,4.41-4.96,5.99-10.44,6.62-13.46v-35.9c-.08-.21-.64-1.71-2.21-2.24-1.01-.34-1.88-.11-2.21,0H.5v-.03Z"/>
  <path class="cls-2" d="m368.84,32.48v29.47h99.25c-33.08,37.78-66.17,75.56-99.25,113.35v11.33c.31,1.14.92,2.84,2.21,4.53,2.34,3.07,5.39,4.17,6.62,4.53h134.55v-29.47h-97.05c32.35-37.03,64.7-74.05,97.05-111.08v-11.33c-.48-1.34-1.18-2.9-2.21-4.53-2.17-3.44-4.8-5.58-6.62-6.8h-134.55,0Z"/>
  <path class="cls-2" d="m710.1,32.48h30.88c-.74,43.68-1.47,87.35-2.21,131.03h119.11v31.09h-134.55c-1.31-.19-5.34-.94-8.82-4.44-.93-.94-3.72-3.98-4.41-8.88V32.49h0Z"/>
  <path class="cls-2" d="m829,32.48h35.29l52.94,113.26c19.12-37.75,38.23-75.51,57.35-113.26h33.08c-26.47,54.04-52.94,108.08-79.4,162.12h-24.26c-25-54.04-49.99-108.08-74.99-162.12h0Z"/>
  <path class="cls-2" d="m219.84,32.47h132.66v28.87h-115.34v93.27c-.05.49-.39,4.03,2.18,6.66,1.65,1.69,3.61,2.11,4.35,2.22h108.81v31.09h-104.46c-2.35.1-16.88.51-28.29-11.1-10.41-10.6-10.85-23.69-10.88-26.39-.41-62.06-.38-107.31,0-113.52.06-1.03.18-4.05,2.18-6.66,2.25-2.95,5.84-4.04,8.8-4.45h0Z"/>
  <path class="cls-2" d="m249.57,99.76h92.64v28.67h-92.64v-28.67Z"/>
  <path class="cls-2" d="m1034.92,32.47h133.58v28.87h-116.14v93.27c-.05.49-.39,4.03,2.19,6.66,1.66,1.69,3.63,2.11,4.38,2.22h109.57v31.09h-105.19c-2.37.1-17,.51-28.49-11.1-10.48-10.6-10.92-23.69-10.96-26.39-.42-62.06-.38-107.31,0-113.52.06-1.03.18-4.05,2.19-6.66,2.27-2.95,5.88-4.04,8.86-4.45h.01Z"/>
  <path class="cls-2" d="m1064.57,99.76h92.64v28.67h-92.64v-28.67Z"/>
  <path class="cls-3" d="m542.5,100.43c.14-25.61,15.41-39.53,15.41-39.53,9.07-8.26,19.95-9.95,32.18-11.84,7.12-1.1,13.06-1.11,22.86-1.13,11.33-.03,16.99-.04,23.63,1.13,10.19,1.8,22.6,4.02,31.42,14,9.46,10.7,10.39,25.38,11.01,35.13.02.25,0,.23,0,13.41v13.41c-.15,12.74-.32,26.62-8.81,37.5-4.66,5.97-10.43,9.27-13.21,10.81-3.34,1.85-7.44,3.6-15.24,5.4-4.57,1.06-16.24,3.48-33.2,3.24-15.61-.22-25.88-2.55-28.79-3.24-8.99-2.15-13.32-4.32-14.88-5.2-.19-.11-.33-.19-.36-.21-7.58-4.37-12.17-11.05-13.21-12.56-8.74-12.71-8.79-31.45-8.81-40.22v-20.11h0Z"/>
  <g id="Layer_2" data-name="Layer 2">
    <path class="cls-4" d="m271.5,345.43c-.08-52.09-.08-72.8-.04-73.6,0,0,0-.1.01-.22.02-.41.05-1.26,0-2.32-.07-1.63-.3-3.82-1.02-6.28-1.12-3.86-2.94-6.76-4.28-8.58-1.39-1.31-3.43-3.22-5.91-5.5h0c-2.05-1.87-5.4-4.93-14.05-12.5-2.82-2.47-6.52-5.7-10.9-9.48-.97-.8-2.31-1.85-3.99-3-1.29-.87-2.86-1.94-4.99-3-.95-.47-2.33-1.1-4.99-2-1.99-.67-5.25-1.76-9.69-2.61-7.4-1.42-13.83-1.36-15.23-1.36h-71.81c0,24.84.02,49.66.02,74.5v12.93c.2,2.38.75,6.89,4.18,10.2,3.57,3.43,8.21,4.03,11.12,4.03h42.27v18.14h-40.04c-9.2,0-17.36-2.33-23.96-7.13-3.9-2.83-6.29-5.81-7.18-6.98-5.33-7.08-6.41-14.55-6.67-18.14-.02-29.18-.03-58.36-.04-87.54-6.9-.04-12.79,0-17.68,0-2.4,0-5.71-.24-9.52,1.36-3.07,1.29-4.99,3.1-5.44,3.54-5.07,4.93-5.19,11.88-5.17,13.61.08,52.09.08,72.8.04,73.6,0,0,0,.1-.01.22-.02.41-.05,1.26,0,2.32.07,1.63.3,3.82,1.02,6.28,1.12,3.86,2.94,6.76,4.28,8.58,1.39,1.31,3.43,3.22,5.91,5.5h0c2.05,1.87,5.4,4.93,14.05,12.5,2.82,2.47,6.52,5.7,10.9,9.48.97.8,2.31,1.85,3.99,3,1.29.87,2.86,1.94,4.99,3,.95.47,2.33,1.1,4.99,2,1.99.67,5.25,1.76,9.69,2.61,7.4,1.42,13.83,1.36,15.23,1.36h71.81c0-24.84-.02-49.66-.02-74.5v-12.93c-.2-2.38-.75-6.89-4.18-10.2-3.57-3.43-8.21-4.03-11.12-4.03h-42.27v-18.14h40.04c9.2,0,17.36,2.33,23.96,7.13,3.9,2.83,6.29,5.81,7.18,6.98,5.33,7.08,6.41,14.55,6.67,18.14.02,29.18.03,58.36.04,87.54,6.9.04,12.79,0,17.68,0,2.4,0,5.71.24,9.52-1.36,3.07-1.29,4.99-3.1,5.44-3.54,5.07-4.93,5.19-11.88,5.17-13.61h0Zm-102.37-69.66c7.47.07,13.35,6.47,13.37,13.7,0,7.33-6.07,13.78-13.63,13.71-7.46-.07-13.35-6.48-13.37-13.7,0-7.33,6.07-13.78,13.63-13.7h0Z"/>
  </g>
  <path class="cls-2" d="m310,292.47c.04-19.53.08-39.07.11-58.6,11.23-6.25,22.46-12.49,33.7-18.74h77.02c5.19.44,26.65,2.77,43.32,18.74,13.87,13.28,16.29,28.2,16.85,33.32v45.81c-1.35,6.01-5.22,19.29-16.85,31.23-15.16,15.57-33.47,18.54-39.15,19.24h-95c-10.67-9.33-21.33-18.67-32-28h0c40.94.14,81.89.29,122.83.43,3.54-.87,12-3.41,19.25-10.41,6.78-6.54,8.9-13.52,9.63-16.66v-39.56c-.66-2.97-3.04-11.6-12.03-18.74-7.51-5.96-15.68-7.74-19.25-8.33h-77.02c.2,26.09.4,52.18.6,78.27-10.67-9.33-21.33-18.67-32-28h-.01Z"/>
  <path class="cls-2" d="m497.07,214.97h24.07v147.97h-24.07v-147.97Z"/>
  <path class="cls-2" d="m536.99,245.59c.52-3.38,2.64-14.56,12.03-22.96,5.45-4.88,11.12-6.82,14.44-7.65h115.53v25.51h-110.71c-.73.6-1.59,1.43-2.41,2.55-1.41,1.92-2.07,3.83-2.41,5.1v84.19c.57.77,1.35,1.68,2.41,2.55,1.81,1.49,3.61,2.2,4.81,2.55h81.83v-35.72h-67.39v-25.51h84.24c1.34.41,4.67,1.64,7.22,5.1,1.4,1.91,2.07,3.82,2.41,5.1v66.33c-.39,1.42-1.55,4.95-4.81,7.65-1.8,1.49-3.6,2.2-4.81,2.55h-103.49c-3.52-.68-11.78-2.81-19.25-10.21-5.7-5.64-8.4-11.83-9.63-15.31v-91.85.03Z"/>
  <path class="cls-2" d="m694.64,214.97h24.07v147.97h-24.07v-147.97Z"/>
  <path class="cls-2" d="m734.78,214.97h139.6v25.51h-57.76v122.46h-24.07v-122.46h-57.76v-25.51h-.01Z"/>
  <path class="cls-2" d="m1012.83,220.08c-1.65-2.52-3.51-4.14-4.81-5.1h-72.2c-6.07.61-23.31,3.21-38.51,17.86-20.45,19.71-21.54,46.13-21.66,51.03v79.09h24.07v-35.72h91.46v35.72h24.07v-137.77c-.43-1.38-1.16-3.2-2.41-5.1h-.01Zm-21.66,79.82h-91.46v-15.44c.27-3.12,0-18.01,16.85-33.46,11.7-10.72,25.46-10.55,28.88-10.29h45.73v59.19h0Z"/>
  <path class="cls-2" d="m1030.53,214.97h25.55v122.46h112.42v25.51h-130.3c-.76-.11-3.09-.54-5.11-2.55-.54-.54-2.15-2.29-2.55-5.1v-140.32h-.01Z"/>
</svg>